# xmcd CD database file
#
# Track frame offsets:
#	150
#	13620
#	30493
#	44723
#	57638
#	72645
#	88415
#	103220
#	116508
#	130563
#	149035
#	163828
#	182585
#	200063
#	214478
#	231715
#	247395
#	265208
#	280895
#	297530
#	310190
#
# Disc length: 4401 seconds
#
# Revision: 0
# Processed by: cddbd v1.5.2PL0 Copyright (c) Steve Scherf et al.
# Submitted via: CDex 1.70beta2
#
DISCID=69112f15
DTITLE=ChartBreakers - ChartBreakers CGC-507
DYEAR=0000
DGENRE=Country
TTITLE0=George  Strait - Easy Come, Easy Go
TTITLE1=Doug Supernaw - I Don't Call Him Daddy
TTITLE2=Collin Raye - Someone Else's Moon
TTITLE3=Restless Heart - We Got The Love
TTITLE4=Sawyer Brown/Thank God For You
TTITLE5=Aaron Tippin/My Blue Angel
TTITLE6=Steve Wariner/If I Didn't Love You
TTITLE7=Alabama/I'm In A Hurry (And Don't Know Why)
TTITLE8=Clint Black/Nothing's News
TTITLE9=Mary-Chapin Carpenter/Never Had It So Good
TTITLE10=Diamond Rio/Mirror Mirror
TTITLE11=VinceGill/Pocket Full Of Gold
TTITLE12=Judds/Give A Little Love
TTITLE13=Patty Loveless/On Down The Line
TTITLE14=Kathy Mattea/Where've You Been
TTITLE15=Paul Overstreet/All The Fun
TTITLE16=Restless Heart/Bluest Eyes In Texas
TTITLE17=Randy Travis/Good Times
TTITLE18=Randy Travis/Deeper Than The Holler
TTITLE19=Steve Wariner/Precious Thing
TTITLE20=Alabama/If You're Gonna Play In Texas
EXTD=YEAR: 0000
EXTT0=
EXTT1=
EXTT2=
EXTT3=
EXTT4=
EXTT5=
EXTT6=
EXTT7=
EXTT8=
EXTT9=
EXTT10=
EXTT11=
EXTT12=
EXTT13=
EXTT14=
EXTT15=
EXTT16=
EXTT17=
EXTT18=
EXTT19=
EXTT20=
PLAYORDER=
